<?xml version="1.0" encoding="utf-8"?>
<!-- Generator: Adobe Illustrator 19.0.0, SVG Export Plug-In . SVG Version: 6.00 Build 0)  -->
<svg version="1.1" xmlns="http://www.w3.org/2000/svg" xmlns:xlink="http://www.w3.org/1999/xlink" x="0px" y="0px"
	 viewBox="0 0 600 600" style="enable-background:new 0 0 600 600;" xml:space="preserve">
<style type="text/css">
	.st0{clip-path:url(#XMLID_3_);fill:#FFFFFF;stroke:#000000;stroke-width:50;stroke-miterlimit:10;}
	.st1{clip-path:url(#XMLID_3_);fill:#FFFFFF;stroke:#000000;stroke-width:10;stroke-miterlimit:10;}
	.st2{fill:#414042;stroke:#2D2D2D;stroke-width:50;stroke-miterlimit:10;}
	.st3{fill:#414042;stroke:#000000;stroke-width:50;stroke-miterlimit:10;}
	.st4{fill:#BCBEC0;stroke:#414042;stroke-width:10;stroke-miterlimit:10;}
</style>
<g id="Layer_1">
	<g>
		<defs>
			<path id="XMLID_1_" d="M475,576H125c-55.2,0-100-44.8-100-100V126c0-49.6,36.1-90.8,83.5-98.6c5.4-0.9,10.9-1.4,16.5-1.4h350
				c55.2,0,100,44.8,100,100v350C575,531.2,530.2,576,475,576z"/>
		</defs>
		<use xlink:href="#XMLID_1_"  style="overflow:visible;fill:#FFFFFF;"/>
		<clipPath id="XMLID_3_">
			<use xlink:href="#XMLID_1_"  style="overflow:visible;"/>
		</clipPath>
		<path class="st0" d="M93,38.4"/>
		<path class="st0" d="M93,248"/>
		<path class="st0" d="M188.8,37.7"/>
		<path class="st0" d="M188.8,247.3"/>
		<path class="st0" d="M296.5,244V34.3V244z"/>
		<path class="st0" d="M476,37.7"/>
		<path class="st0" d="M476,248.7"/>
		<path class="st0" d="M108.5,31.4"/>
		<path class="st0" d="M108.5,241"/>
		<path class="st0" d="M204.3,30.7"/>
		<path class="st0" d="M204.3,240.3"/>
		<path class="st0" d="M303.5,238.7V29V238.7z"/>
		<path class="st0" d="M491.5,30.7"/>
		<path class="st0" d="M491.5,241.7"/>
		<line class="st0" x1="200.7" y1="34.3" x2="200.7" y2="244"/>
		<line class="st0" x1="200.7" y1="244" x2="200.7" y2="34.3"/>
		<line class="st0" x1="207.8" y1="29" x2="207.8" y2="238.7"/>
		<line class="st0" x1="207.8" y1="238.7" x2="207.8" y2="29"/>
		<line class="st0" x1="105" y1="34.3" x2="105" y2="244"/>
		<line class="st0" x1="105" y1="244" x2="105" y2="34.3"/>
		<line class="st0" x1="112" y1="29" x2="112" y2="238.7"/>
		<line class="st0" x1="112" y1="238.7" x2="112" y2="29"/>
		<line class="st0" x1="488" y1="37" x2="488" y2="246.7"/>
		<line class="st0" x1="488" y1="246.7" x2="488" y2="37"/>
		<line class="st0" x1="495" y1="31.7" x2="495" y2="241.3"/>
		<line class="st0" x1="495" y1="241.3" x2="495" y2="31.7"/>
		<line class="st1" x1="108.5" y1="576" x2="108.5" y2="273"/>
		<line class="st1" x1="204.3" y1="576" x2="204.3" y2="273"/>
		<line class="st1" x1="300" y1="576" x2="300" y2="273"/>
		<line class="st1" x1="395.8" y1="576" x2="395.8" y2="67"/>
		<line class="st1" x1="491.5" y1="576" x2="491.5" y2="273"/>
		<use xlink:href="#XMLID_1_"  style="overflow:visible;fill:none;stroke:#000000;stroke-width:35;stroke-miterlimit:10;"/>
	</g>
	<path class="st2" d="M200.7,244"/>
	<path class="st2" d="M200.7,34.3"/>
	<path class="st2" d="M200.7,34.3"/>
	<path class="st2" d="M200.7,244"/>
	<path class="st3" d="M207.8,238.7"/>
	<path class="st3" d="M207.8,29"/>
	<path class="st3" d="M207.8,29"/>
	<path class="st3" d="M207.8,238.7"/>
	<path class="st2" d="M105,244"/>
	<path class="st2" d="M105,34.3"/>
	<path class="st2" d="M105,34.3"/>
	<path class="st2" d="M105,244"/>
	<path class="st3" d="M112,238.7"/>
	<path class="st3" d="M112,29"/>
	<path class="st3" d="M112,29"/>
	<path class="st3" d="M112,238.7"/>
	<path class="st2" d="M488,246.7"/>
	<path class="st2" d="M488,37"/>
	<path class="st2" d="M488,37"/>
	<path class="st2" d="M488,246.7"/>
	<path class="st3" d="M495,241.3"/>
	<path class="st3" d="M495,31.7"/>
	<path class="st3" d="M495,31.7"/>
	<path class="st3" d="M495,241.3"/>
</g>
<g id="Layer_3">
</g>
<g id="Layer_2">
	<path class="st4" d="M108.5,273"/>
	<path class="st4" d="M108.5,576"/>
	<path class="st4" d="M204.3,273"/>
	<path class="st4" d="M204.3,576"/>
	<path class="st4" d="M300,273"/>
	<path class="st4" d="M300,576"/>
	<path class="st4" d="M395.8,67"/>
	<path class="st4" d="M395.8,576"/>
	<path class="st4" d="M491.5,273"/>
	<path class="st4" d="M491.5,576"/>
</g>
</svg>
